<svg width="75" height="75" viewBox="0 0 75 75" fill="none" xmlns="http://www.w3.org/2000/svg"><path d="M37.5 2.7424C46.7152 2.75056 55.5506 6.41188 62.0667 12.9226C68.5828 19.4334 72.2472 28.2616 72.2553 37.4692C72.2594 42.0336 71.3636 46.5542 69.6192 50.7727C67.8748 54.9912 65.3158 58.8251 62.0885 62.0555C58.8612 65.286 55.0286 67.8496 50.8097 69.6C46.5908 71.3505 42.0682 72.2536 37.5 72.2576C28.2713 72.2658 19.4169 68.6127 12.8825 62.101C6.34816 55.5894 2.6685 46.7519 2.65215 37.5308C2.64809 32.9586 3.54688 28.4305 5.29709 24.2059C7.0473 19.9814 9.61451 16.1434 12.8516 12.9117C16.0888 9.68012 19.9323 7.11842 24.1619 5.37339C28.3914 3.62836 32.924 2.73429 37.5 2.7424ZM37.5 0C27.5544 0 18.0161 3.94763 10.9835 10.9745C3.9509 18.0013 1.26814e-05 27.5317 1.26814e-05 37.4692C-0.00403879 42.3938 0.962724 47.2709 2.84508 51.8222C4.72744 56.3734 7.48852 60.5097 10.9707 63.9947C14.4529 67.4798 18.588 70.2454 23.1399 72.1337C27.6918 74.022 32.5714 74.996 37.5 75C47.4456 75 56.9839 71.0524 64.0165 64.0255C71.0491 56.9987 75 47.4683 75 37.5308C75.004 32.6092 74.0368 27.735 72.1537 23.1872C70.2706 18.6394 67.5085 14.5072 64.0255 11.0271C60.5425 7.54692 56.4069 4.78712 51.8554 2.90555C47.3039 1.02398 42.4257 0.0575759 37.5 0.0616284V0Z" fill="url(#paint0_linear_2001_50)"/><path d="M29.6616 58.9429L13.6912 43.2825C11.9234 41.4514 10.9368 39.0153 10.9368 36.4814C10.9368 31.1183 15.3237 26.9482 20.6378 26.9482C23.2202 26.9482 25.7051 27.9255 27.5843 29.6802L31.5118 33.5391L47.4498 17.8787C51.1986 14.2635 57.5675 14.238 61.3427 17.8787C64.9184 21.5604 64.9184 27.5742 61.3427 31.256C50.593 41.8926 44.5662 47.8561 33.8165 58.4927C33 59.5002 30.5 60.0002 29.6616 58.9429ZM18.0735 39.4237L31.9663 53.0582L57.1879 27.8473C61.0127 24.4159 54.9742 19.0717 51.6371 22.4129L33.5893 40.0991C32.4812 41.235 30.5535 41.2462 29.4345 40.0991L23.3968 34.2143C20.5762 30.2835 14.5019 35.9726 18.0735 39.4237Z" fill="url(#paint1_linear_2001_50)"/><defs><linearGradient id="paint0_linear_2001_50" x1="75" y1="37.5" x2="-1.63918e-06" y2="37.5" gradientUnits="userSpaceOnUse"><stop stop-color="#926105"/><stop offset="0.501161" stop-color="#DFA02B"/><stop offset="1" stop-color="#91620B"/></linearGradient><linearGradient id="paint1_linear_2001_50" x1="75" y1="37.5" x2="-1.63918e-06" y2="37.5" gradientUnits="userSpaceOnUse"><stop stop-color="#926105"/><stop offset="0.501161" stop-color="#DFA02B"/><stop offset="1" stop-color="#91620B"/></linearGradient></defs></svg>
