<svg width="64" height="64" viewBox="0 0 64 64" fill="none" xmlns="http://www.w3.org/2000/svg"><path d="M62 23.4652C62 16.1676 56.0437 10 48.8404 10H15.1598C8.03633 9.99455 1.99477 16.176 2.00009 23.4652V39.4846C1.97343 46.7906 8.01998 53.0001 15.1598 53H48.8108C56.012 52.9945 61.9652 46.8303 61.9706 39.5348L62 23.4652ZM41.3443 33L27.1205 40.3092C26.5308 40.641 24.623 40.4853 24.623 39V24C24.623 22.6628 26.5406 22.7009 27.1303 23.0428L41.3443 31C41.9536 31.352 41.9536 32.6581 41.3443 33Z" fill="url(#paint0_linear_2001_138)"/><defs><linearGradient id="paint0_linear_2001_138" x1="58.059" y1="51.8637" x2="1.58578" y2="9.64188" gradientUnits="userSpaceOnUse"><stop stop-color="#FF0000"/><stop offset="1" stop-color="#9B0000"/></linearGradient></defs></svg>
