<svg width="64" height="64" viewBox="0 0 64 64" fill="none" xmlns="http://www.w3.org/2000/svg"><path fill-rule="evenodd" clip-rule="evenodd" d="M45.4939 23.4021C49.7249 26.3667 54.7982 27.9571 60 27.9494V17.7548C58.9889 17.7559 57.9806 17.6505 56.9925 17.4405V25.4646C51.7919 25.4745 46.7189 23.8876 42.4864 20.9271V41.719C42.4802 45.1325 41.5288 48.4803 39.7337 51.4059C37.9386 54.3315 35.3669 56.7251 32.2928 58.3317C29.2186 59.9384 25.7571 60.6979 22.2772 60.5293C18.7972 60.3606 15.4291 59.2703 12.5318 57.3743C15.2074 60.0361 18.6298 61.8593 22.3648 62.6126C26.0998 63.366 29.979 63.0154 33.5103 61.6055C37.0416 60.1956 40.0659 57.7898 42.1994 54.6934C44.333 51.597 45.4796 47.9495 45.4939 44.2136V23.4021ZM49.2432 13.1191C46.7578 10.4678 45.4939 7.06537 45.4939 3.49419H42.6067C42.9611 5.4651 43.7352 7.34079 44.8786 8.99913C46.0221 10.6575 47.5092 12.0613 49.2432 13.1191ZM19.2184 49.3895C16.1353 45.4311 17.2321 39.4717 21.5881 36.8361C22.9845 35.9912 24.5946 35.5461 26.2359 35.5512C27.1447 35.5499 28.048 35.6891 28.9126 35.9637V25.553C27.9162 25.4179 26.9107 25.3588 25.9051 25.3762V33.4887C25.0422 33.2228 24.143 33.087 23.2384 33.086C21.257 33.0816 19.3321 33.7331 17.776 34.9348C14.6157 37.3754 13.5452 41.7567 15.2504 45.3394C16.0878 47.0987 17.5072 48.5294 19.2786 49.3993L19.2184 49.3895Z" fill="#FF1753"/><path fill-rule="evenodd" clip-rule="evenodd" d="M42.4463 20.9271C46.6789 23.8876 51.7519 25.4745 56.9525 25.4646V17.4405C53.9867 16.8202 51.2919 15.3097 49.2432 13.1191C47.5092 12.0613 46.0221 10.6575 44.8786 8.99913C43.7352 7.34079 42.9611 5.4651 42.6067 3.49419H35.0178V44.2136C35.0082 46.0135 34.4239 47.7653 33.3469 49.2235C32.2699 50.6817 30.7542 51.7732 29.0121 52.3449C27.2701 52.9167 25.3891 52.9401 23.6328 52.4119C21.8765 51.8837 20.3329 50.8302 19.2185 49.3993C15.2108 47.3931 13.3662 42.563 15.0738 38.4628C15.9069 36.4626 17.4759 34.8416 19.4705 33.9205C21.4651 32.9994 23.74 32.8453 25.845 33.4887V25.3762C22.0993 25.46 18.4602 26.6141 15.3749 28.6966C12.2896 30.7791 9.89255 33.6993 8.47833 37.0984C7.06412 40.4974 6.69434 44.2272 7.41446 47.8293C8.13459 51.4315 9.91319 54.749 12.5318 57.3743C15.4291 59.2703 18.7972 60.3606 22.2772 60.5293C25.7571 60.6979 29.2186 59.9384 32.2928 58.3317C35.3669 56.7251 37.9386 54.3315 39.7337 51.4059C41.5288 48.4803 42.4802 45.1325 42.4864 41.719L42.4463 20.9271Z" fill="url(#paint0_linear_2001_138)"/><path fill-rule="evenodd" clip-rule="evenodd" d="M56.9525 17.4405L56.9525 15.2803C54.227 15.2813 51.5558 14.5323 49.2432 13.1191C51.2907 15.3113 53.986 16.8221 56.9525 17.4405ZM42.6067 3.49419C42.4573 2.65761 42.4464 1.84719 42.4464 1H31.9703V41.7096C31.9539 46.4115 27.9343 50.3033 23.1683 50.3033C21.7958 50.3054 20.4422 49.9891 19.2185 49.3801C20.3319 50.8097 21.8737 51.8626 23.628 52.3914C25.3824 52.9201 27.2616 52.8983 29.0028 52.329C30.7439 51.7597 32.2598 50.6714 33.3383 49.2163C34.4168 47.7613 35.0041 46.0118 35.0178 44.2136V3.49419H42.6067ZM25.845 25.3668V23.0588C21.5371 22.479 17.1557 23.3468 13.4161 25.5207C9.67644 27.6946 6.79935 31.0462 5.25444 35.0283C3.70953 39.0105 3.58803 43.3881 4.90974 47.4466C6.23145 51.5051 8.91825 55.0045 12.5318 57.3743C9.90778 54.747 8.12577 51.4256 7.40518 47.8183C6.68459 44.211 7.05699 40.476 8.47646 37.0735C9.89593 33.6711 12.3004 30.7498 15.3937 28.6696C18.487 26.5895 22.134 25.4414 25.8851 25.3668H25.845Z" fill="#00C9D0"/><defs><linearGradient id="paint0_linear_2001_138" x1="3.94621" y1="32.0022" x2="60" y2="32.0022" gradientUnits="userSpaceOnUse"><stop stop-color="#23004A"/><stop offset="0.96" stop-color="#020003"/><stop offset="1"/></linearGradient></defs></svg>
