<svg width="144" height="121" viewBox="0 0 144 121" fill="none" xmlns="http://www.w3.org/2000/svg"><path d="M25.0279 13.7118L26.6122 23.1548H27.481L26.05 14.5914L126.908 1.13834L130.613 23.1548H131.482L127.598 0L25.0279 13.7118Z" fill="#AB0003"/><path d="M31.646 17.6185L32.5915 23.1549H47.7701L120.622 13.6084C121.129 13.5725 121.63 13.7393 122.017 14.0731C122.404 14.4068 122.646 14.8809 122.692 15.3935L124.123 23.1549H126.857L123.816 5.43311L31.646 17.6185Z" fill="#AB0003"/><path d="M141.243 25.0953C141.243 23.9516 141.02 22.8191 140.587 21.7627C140.154 20.7064 139.519 19.7469 138.719 18.9394C137.92 18.1319 136.97 17.4921 135.925 17.0568C134.881 16.6215 133.762 16.3991 132.632 16.4025H8.87822C7.88429 16.3071 6.88147 16.3859 5.91397 16.6354C2.56652 16.7906 1.33998 18.8344 0.982241 23.7759H126.806C127.875 23.7758 128.934 23.9895 129.921 24.4046C130.909 24.8196 131.806 25.428 132.561 26.1947C133.316 26.9613 133.914 27.8714 134.32 28.8725C134.727 29.8736 134.935 30.9462 134.932 32.0288V51.0183H141.243V25.0953ZM134.932 105.296C134.935 106.379 134.727 107.451 134.32 108.453C133.914 109.454 133.316 110.364 132.561 111.13C131.806 111.897 130.909 112.505 129.921 112.92C128.934 113.336 127.875 113.549 126.806 113.549H1.31444C1.31444 113.549 1.31444 113.549 1.31444 113.704C1.51585 114.949 1.98704 116.133 2.69426 117.171C2.95321 117.648 3.30028 118.069 3.71644 118.413C5.99643 120.091 8.74227 120.997 11.5613 121H132.606C134.89 121 137.081 120.082 138.695 118.446C140.31 116.811 141.218 114.594 141.218 112.281V83.8231H134.906L134.932 105.296ZM96.6019 68.4297V66.0237C96.6019 58.2623 102.709 51.1994 110.222 51.1994H130.102V35.0557C130.102 33.3654 129.441 31.744 128.263 30.5463C127.084 29.3486 125.486 28.6724 123.816 28.6655H0.905507C0.649976 36.4269 1.72321 46.7754 0.905507 68.6108C0.215573 86.9794 -0.729892 99.0095 0.905507 107.806H123.79C124.618 107.806 125.438 107.64 126.202 107.319C126.966 106.997 127.66 106.526 128.244 105.933C128.829 105.339 129.291 104.634 129.605 103.859C129.92 103.084 130.08 102.254 130.077 101.416V83.7196H110.222C102.684 83.7455 96.5763 75.9065 96.5763 68.3003L96.6019 68.4297Z" fill="#F1F1F1"/><path d="M143.952 60.2802H112.828C112.013 60.2802 111.205 60.4428 110.452 60.7588C109.699 61.0747 109.014 61.5378 108.438 62.1215C107.861 62.7053 107.404 63.3984 107.091 64.1611C106.779 64.9239 106.619 65.7413 106.619 66.5669V67.8346C106.605 68.6645 106.754 69.489 107.057 70.2603C107.36 71.0316 107.81 71.7346 108.383 72.3287C108.956 72.9228 109.639 73.3962 110.393 73.7217C111.147 74.0471 111.957 74.2181 112.777 74.2248H143.824L143.952 60.2802ZM104.575 68.0416V66.7739C104.561 65.6722 104.763 64.5786 105.168 63.5562C105.574 62.5338 106.175 61.6026 106.938 60.8163C107.7 60.0301 108.608 59.4042 109.611 58.9747C110.613 58.5453 111.689 58.3207 112.777 58.314H143.952C144.016 57.237 144.016 56.1571 143.952 55.0801H111.576C110.118 55.0801 108.673 55.3714 107.326 55.9372C105.979 56.5031 104.755 57.3325 103.725 58.3779C102.695 59.4233 101.879 60.6641 101.323 62.0293C100.767 63.3946 100.483 64.8574 100.486 66.3341V68.3003C100.483 69.777 100.767 71.2398 101.323 72.6051C101.879 73.9703 102.695 75.2112 103.725 76.2565C104.755 77.3019 105.979 78.1313 107.326 78.6972C108.673 79.263 110.118 79.5543 111.576 79.5543H143.901C143.901 79.1145 143.901 77.3035 143.901 76.3204H112.777C111.694 76.317 110.623 76.0973 109.624 75.6739C108.626 75.2505 107.719 74.6317 106.957 73.853C106.195 73.0743 105.593 72.151 105.184 71.136C104.775 70.121 104.568 69.0343 104.575 67.9381V68.0416Z" fill="#F1F1F1"/></svg>
