<svg width="150" height="130" viewBox="0 0 150 130" fill="none" xmlns="http://www.w3.org/2000/svg"><path d="M119.021 125C118.631 125.001 118.244 124.92 117.887 124.763C117.529 124.607 117.208 124.377 116.945 124.09L94.3521 102.024C94.0816 101.755 93.867 101.436 93.7206 101.085C93.5741 100.734 93.4987 100.357 93.4987 99.9764C93.4987 99.5959 93.5741 99.2192 93.7206 98.8678C93.867 98.5165 94.0816 98.1974 94.3521 97.929L108.638 83.8248C109.19 83.2775 109.936 82.9702 110.715 82.9702C111.493 82.9702 112.24 83.2775 112.791 83.8248L135.156 105.891C135.426 106.159 135.641 106.478 135.787 106.83C135.934 107.181 136.009 107.558 136.009 107.938C136.009 108.319 135.934 108.696 135.787 109.047C135.641 109.398 135.426 109.717 135.156 109.986L120.984 124.09C120.767 124.401 120.471 124.65 120.126 124.81C119.781 124.97 119.4 125.035 119.021 125ZM100.582 99.9764L119.021 118.175L129.154 108.166L110.715 89.967L100.582 99.9764Z" fill="#F1F1F1"/><path d="M61.6498 98.1794C49.0377 98.1692 36.9431 93.1797 28.012 84.3027C23.5793 79.9734 20.0578 74.8058 17.6538 69.1028C15.2497 63.3997 14.0114 57.2758 14.0114 51.0897C14.0114 44.9036 15.2497 38.7798 17.6538 33.0767C20.0578 27.3737 23.5793 22.2061 28.012 17.8768C34.3837 11.5784 42.4057 7.19561 51.1597 5.23012C59.9137 3.26463 69.046 3.79586 77.5113 6.76299C85.9765 9.73011 93.4327 15.0132 99.0263 22.0076C104.62 29.002 108.125 37.425 109.14 46.3126C110.218 56.9407 107.617 67.6166 101.769 76.5682C99.9472 79.3406 97.8607 81.9309 95.5387 84.3027C93.1146 86.7443 90.4019 88.8832 87.4601 90.6724C79.709 95.4844 70.7807 98.0812 61.6498 98.1794ZM61.6498 9.68724C50.6646 9.68724 40.1294 14.0373 32.3616 21.7804C24.5939 29.5236 20.23 40.0255 20.23 50.976C20.23 61.9265 24.5939 72.4284 32.3616 80.1716C40.1294 87.9147 50.6646 92.2648 61.6498 92.2648C72.7719 92.2049 83.4256 87.7936 91.3169 79.9805C93.4086 77.9192 95.2611 75.63 96.8395 73.1559C101.987 65.2185 104.247 55.7608 103.242 46.3623C102.237 36.9639 98.0277 28.1936 91.3169 21.5165C83.2827 13.978 72.6831 9.75155 61.6498 9.68724Z" fill="#F1F1F1"/><path d="M61.6499 83.9613C55.0966 84.0134 48.6764 82.1179 43.2087 78.5167C37.7409 74.9154 33.4736 69.7718 30.9513 63.7423C28.429 57.7128 27.766 51.0709 29.0472 44.6642C30.3284 38.2575 33.4956 32.3767 38.1445 27.7722C43.9264 21.979 51.6516 18.5193 59.8363 18.0574C68.0211 17.5955 76.0885 20.164 82.4894 25.2697C88.8904 30.3753 93.1736 37.6582 94.5165 45.7198C95.8593 53.7814 94.1672 62.0534 89.7651 68.9472C88.496 70.9119 87.0278 72.7413 85.3836 74.4069C83.6471 76.0452 81.802 77.5652 79.8608 78.9566C74.336 82.1884 68.0555 83.9144 61.6499 83.9613ZM61.6499 23.6774C58.0197 23.6446 54.4191 24.3315 51.0576 25.6984C47.6962 27.0653 44.6409 29.0848 42.0696 31.6395C39.4957 34.1404 37.4501 37.1296 36.0534 40.431C34.6566 43.7324 33.937 47.2791 33.937 50.8621C33.937 54.4451 34.6566 57.9918 36.0534 61.2932C37.4501 64.5945 39.4957 67.5838 42.0696 70.0846C44.6409 72.6393 47.6962 74.6588 51.0576 76.0257C54.4191 77.3926 58.0197 78.0795 61.6499 78.0467C66.889 78.1228 72.0286 76.6159 76.3922 73.7244C78.0141 72.642 79.5409 71.4244 80.9563 70.0846C82.3112 68.6713 83.5477 67.1496 84.6533 65.5349C87.348 61.4304 88.8721 56.6727 89.0627 51.7711C89.2533 46.8694 88.1031 42.0083 85.7353 37.7082C83.3674 33.4081 79.871 29.8308 75.6204 27.3593C71.3697 24.8878 66.5247 23.6151 61.6042 23.6774H61.6499Z" fill="#F1F1F1"/><path d="M103.572 95.8817C103.181 95.881 102.795 95.7999 102.438 95.6433C102.08 95.4867 101.759 95.258 101.495 94.9717L90.6778 84.2799C90.4017 84.0146 90.1822 83.6966 90.0322 83.3448C89.8822 82.9931 89.8049 82.6147 89.8049 82.2325C89.8049 81.8502 89.8822 81.4719 90.0322 81.1202C90.1822 80.7684 90.4017 80.4504 90.6778 80.1851C91.2256 79.6392 91.9686 79.3325 92.7432 79.3325C93.5178 79.3325 94.2607 79.6392 94.8085 80.1851L105.648 90.877C105.924 91.1423 106.144 91.4603 106.294 91.8121C106.444 92.1638 106.521 92.5421 106.521 92.9244C106.521 93.3066 106.444 93.6849 106.294 94.0367C106.144 94.3884 105.924 94.7065 105.648 94.9717C105.398 95.2752 105.08 95.5158 104.719 95.6739C104.358 95.832 103.965 95.9031 103.572 95.8817Z" fill="#F1F1F1"/><path d="M57.5907 66.9899C57.3133 66.9887 57.0392 66.9309 56.785 66.82C56.5309 66.7091 56.3021 66.5474 56.113 66.3449L44.7538 55.1259C43.4964 53.8141 42.7946 52.0689 42.7946 50.2536C42.7946 48.4384 43.4964 46.6931 44.7538 45.3813C46.0904 44.1242 47.8579 43.4241 49.6947 43.4241C51.5314 43.4241 53.2989 44.1242 54.6355 45.3813L57.429 48.1457L68.7652 36.9268C69.419 36.2918 70.1919 35.7919 71.0398 35.4559C71.8877 35.1199 72.7937 34.9543 73.7059 34.9686C74.6182 34.9543 75.5243 35.1199 76.3722 35.4559C77.2201 35.7919 77.9931 36.2918 78.6468 36.9268C79.8883 38.2144 80.5818 39.9317 80.5818 41.7184C80.5818 43.5052 79.8883 45.2226 78.6468 46.5101L59.0683 66.0224C58.9735 66.3301 58.774 66.5952 58.5042 66.7718C58.2345 66.9485 57.9113 67.0256 57.5907 66.9899ZM49.8563 47.662C49.4884 47.6593 49.1237 47.7291 48.7829 47.8675C48.4422 48.0059 48.1322 48.21 47.8708 48.4682C47.3714 49.001 47.084 49.6973 47.0626 50.4264C47.0596 50.7866 47.1296 51.1437 47.2685 51.4763C47.4073 51.8088 47.6123 52.1099 47.8708 52.3615L57.7523 62.1292L75.6916 44.0682C75.9641 43.822 76.1818 43.5216 76.3308 43.1864C76.4798 42.8511 76.5568 42.4884 76.5568 42.1216C76.5568 41.7549 76.4798 41.3921 76.3308 41.0568C76.1818 40.7215 75.9641 40.4212 75.6916 40.175C75.1472 39.6787 74.4429 39.3928 73.7059 39.3687C73.3414 39.3652 72.98 39.4348 72.6429 39.5733C72.3058 39.7118 71.9999 39.9164 71.7435 40.175L58.9067 52.8453C58.7151 53.0432 58.4855 53.2005 58.2317 53.308C57.9778 53.4154 57.7048 53.4708 57.429 53.4708C57.1533 53.4708 56.8804 53.4154 56.6265 53.308C56.3726 53.2005 56.1431 53.0432 55.9515 52.8453L51.6571 48.6295C51.4516 48.341 51.1822 48.1037 50.8699 47.9359C50.5576 47.7681 50.2108 47.6744 49.8563 47.662Z" fill="#AB0003"/></svg>
