<svg width="36" height="36" viewBox="0 0 36 36" fill="none" xmlns="http://www.w3.org/2000/svg"><path d="M30.5139 3.42664C31.0827 2.8579 32.0047 2.85783 32.5735 3.42664C33.1422 3.99546 33.1422 4.91743 32.5735 5.48624L20.0592 17.9996L32.5735 30.5139C33.1421 31.0827 33.1423 32.0047 32.5735 32.5735C32.0047 33.1423 31.0827 33.1421 30.5139 32.5735L17.9996 20.0592L5.48624 32.5735C4.91743 33.1422 3.99546 33.1422 3.42664 32.5735C2.85783 32.0047 2.8579 31.0827 3.42664 30.5139L15.9391 17.9996L3.42664 5.48624C2.85779 4.9174 2.85779 3.99549 3.42664 3.42664C3.99549 2.85779 4.9174 2.85779 5.48624 3.42664L17.9996 15.9391L30.5139 3.42664Z" fill="#F1F1F1"/></svg>
