<svg width="36" height="36" viewBox="0 0 36 36" fill="none" xmlns="http://www.w3.org/2000/svg">
<path d="M25.7646 16.8313C27.6516 17.6352 29.169 19.0964 30.0247 20.9335C30.7029 22.5451 30.8692 24.3205 30.5018 26.0266C30.1344 27.7327 29.2505 29.2899 27.9661 30.4938C25.5028 32.9014 22.5041 34 18.2678 34C13.5079 34 9.83088 32.3988 7.36764 29.3251C5.17809 26.5902 4.0476 22.7801 4 18C4 13.2199 5.18999 9.40979 7.36764 6.67495C9.83088 3.58948 13.496 2 18.2678 2C23.0276 2 26.7642 3.60117 29.2988 6.67495C30.5747 8.28635 31.4946 10.1412 32 12.1213L29.2512 12.8342C28.847 11.2441 28.1004 9.75752 27.0617 8.4748C25.0863 6.13733 22.0995 4.85171 18.1964 4.82834C14.2932 4.80497 11.3897 6.07889 9.48575 8.46311C7.5818 10.8473 6.77262 13.8977 6.73692 18.0234C6.70122 22.149 7.7008 25.363 9.48575 27.5836C11.2707 29.8042 14.317 31.1833 18.1964 31.2184C21.6949 31.2184 24.0034 30.3769 25.9312 28.4836C26.7957 27.6823 27.396 26.6451 27.6548 25.5056C27.9135 24.3662 27.8189 23.1767 27.383 22.0906C26.9274 21.1083 26.17 20.2909 25.2172 19.7531C25.055 21.3163 24.4717 22.8089 23.5274 24.0774C22.3396 25.53 20.486 26.4075 18.5891 26.4149C17.0626 26.5268 15.5399 26.154 14.2456 25.3514C12.8663 24.5043 11.9549 23.0091 11.8657 21.3893C11.6991 18.1636 14.2456 15.8495 18.3391 15.6158C19.6828 15.539 21.031 15.6017 22.3613 15.8028C22.2479 14.9516 21.9071 14.1452 21.3736 13.4653C19.5397 11.5902 16.0928 11.9265 14.6026 14.0497L12.2227 12.4719C13.5403 10.5267 15.8296 9.38519 18.1725 9.45654C22.4326 9.45654 24.9673 12.0979 25.2172 16.656L25.7646 16.8313ZM14.7336 21.2374C14.8169 22.9087 16.6613 23.6918 18.4463 23.5749C20.2312 23.458 22.147 22.8152 22.4802 18.6896C21.1791 18.423 19.8743 18.3974 18.5533 18.3974C16.8089 18.4953 14.7336 19.1888 14.7336 21.2374Z" fill="#F1F1F1"/>
</svg>
