<svg width="36" height="36" viewBox="0 0 36 36" fill="none" xmlns="http://www.w3.org/2000/svg">
<path d="M18.0178 2C10.9274 2 5 7.81815 5 14.7778C5 19.9273 11.9357 28.6378 15.6703 32.9669C16.8722 34.3534 19.1435 34.3353 20.3297 32.9669C24.0821 28.6378 31 19.9273 31 14.7778C31 7.83147 25.0946 2.01898 18.0178 2ZM18.0178 17.2042C16.7723 17.2042 15.6191 16.4478 15.1425 15.3184C14.6659 14.189 14.9366 12.8537 15.8172 11.9893C16.6978 11.1249 18.0582 10.8593 19.2087 11.3271C20.3594 11.7949 21.13 12.9269 21.13 14.1494C21.13 15.8132 19.7129 17.2042 18.0178 17.2042Z" fill="#F1F1F1"/>
</svg>
