<svg width="36" height="36" viewBox="0 0 36 36" fill="none" xmlns="http://www.w3.org/2000/svg"><path d="M3 10C3 9.44772 3.44772 9 4 9H32C32.5523 9 33 9.44772 33 10V11C33 11.5523 32.5523 12 32 12H4C3.44772 12 3 11.5523 3 11V10Z" fill="#F1F1F1"/>
<path d="M3 18C3 17.4477 3.44772 17 4 17H32C32.5523 17 33 17.4477 33 18V19C33 19.5523 32.5523 20 32 20H4C3.44772 20 3 19.5523 3 19V18Z" fill="#F1F1F1"/><path d="M3 26C3 25.4477 3.44772 25 4 25H32C32.5523 25 33 25.4477 33 26V27C33 27.5523 32.5523 28 32 28H4C3.44772 28 3 27.5523 3 27V26Z" fill="#F1F1F1"/></svg>
