<svg width="100" height="130" viewBox="0 0 100 130" fill="none" xmlns="http://www.w3.org/2000/svg"><path d="M12.1223 52.518C14.7327 56.2906 18.3176 58.3252 22.1622 59.9528C26.3123 61.6682 30.7492 62.5717 35.2355 62.6152C44.5819 62.8038 53.9337 62.7769 63.2829 62.8846C66.6378 62.9346 69.6393 64.9841 69.5879 68.6056C69.5531 72.5722 69.6254 76.5388 69.6521 80.5055C69.6735 83.4347 68.9078 84.2593 65.9816 84.4506C65.7138 84.4694 65.4461 84.5045 65.0954 84.5395V117.919C64.6857 117.952 64.3698 118 64.0539 118C55.7543 117.981 47.4252 118.019 39.1095 117.911C32.0441 117.819 26.0229 115.268 21.4634 109.673C18.6656 106.243 17.0485 102.284 16.9736 97.8461C16.8397 89.6433 16.8638 81.4406 16.8585 73.2378C16.8585 72.362 16.6416 71.7907 15.9027 71.2356C13.2816 69.2712 11.8867 66.6896 12.0072 63.2862C12.125 60.0956 12.0473 56.8969 12.0581 53.7037C12.0688 53.3911 12.1009 53.0543 12.1223 52.518ZM59.9496 67.0157C58.6287 67.0338 57.5621 68.1883 57.623 69.5029C57.6567 70.7777 58.7131 71.8425 59.9924 71.8635C61.3164 71.8503 62.4035 70.7307 62.402 69.4113C62.3864 68.1066 61.2716 66.9919 59.9496 67.0157Z" fill="#F1F1F1"/><path d="M60.7076 60.233V59.05C60.7076 52.7983 60.7076 46.5438 60.7076 40.292C60.7076 38.2763 60.7424 36.2499 60.8843 34.245C61.1118 31.0113 59.5028 28.958 56.6863 27.8908C54.3999 27.0231 51.9849 26.495 49.4388 25.762V20.9815C57.6608 25.0021 65.9363 24.8997 74.3377 21.4262V25.8617C72.9535 26.0854 71.4837 26.1932 70.0915 26.5812C68.5627 27.007 66.9939 27.5001 65.6391 28.2977C61.7811 30.5667 61.8642 34.7301 65.7195 37.0206C67.9818 38.368 70.4958 38.9069 73.066 39.1494C77.2559 39.5321 81.4111 39.3623 85.3815 37.7185C86.2061 37.3736 86.9719 36.8886 87.8607 36.417C87.8848 36.6864 87.9277 36.9559 87.9303 37.2389L87.9705 96.1403C87.9705 97.0808 88.0107 98.0266 87.9973 98.9617C87.9759 100.498 87.1218 101.514 85.8983 102.292C83.9224 103.551 81.6949 103.99 79.4272 104.179C76.0825 104.488 72.5229 104.255 69.3071 103.23C67.6793 102.691 67.6792 102.691 67.6792 100.994C67.6792 96.6577 67.6792 92.3192 67.6792 87.9834C67.6792 87.3097 67.7676 86.9055 68.5306 86.6845C70.8331 86.0512 72.1611 84.3724 72.2146 82.0711C72.3351 77.1694 72.3431 72.2542 72.1316 67.3552C71.9415 62.89 67.4624 60.295 63.9846 60.2222C62.9351 60.2142 61.8749 60.233 60.7076 60.233Z" fill="#F1F1F1"/><path d="M36.4646 36.9532C43.7924 40.1869 51.0666 40.1492 58.3917 36.9721V60.0875H36.4646V36.9532Z" fill="#F1F1F1"/><path d="M33.9694 59.8585C30.8755 59.656 27.8181 59.0704 24.8666 58.115C20.5561 56.6868 16.8347 54.3774 14.0422 50.6883C12.4626 48.6106 12.3796 46.6947 14.0262 44.6575C15.6111 42.6957 17.7744 41.5451 20.01 40.5615C24.315 38.6752 28.845 37.5272 33.4741 36.8562C33.6399 36.8462 33.8062 36.8462 33.972 36.8562L33.9694 59.8585Z" fill="#F1F1F1"/><path d="M62.2336 12C65.2135 12 68.5199 12.4931 71.4569 13.7435C72.2246 14.0676 72.9374 14.5103 73.5693 15.0558C74.7339 16.0744 74.7687 17.3598 73.5693 18.3272C72.6776 19.0804 71.6531 19.6581 70.5493 20.0303C64.7021 21.798 58.8495 21.8358 53.0692 19.6908C51.0604 18.9101 48.7622 16.8284 51.072 14.8888C54.084 12.3632 59.2538 12 62.2336 12ZM65.1679 17.5242C65.9528 17.1677 66.0551 16.2682 65.2135 15.9074C63.3472 15.0836 61.1619 15.0776 59.2913 15.8912C58.4171 16.2461 58.4227 17.243 59.3394 17.5404C61.4658 18.2375 63.0464 18.2462 65.1679 17.5242Z" fill="#F1F1F1"/><path d="M67.5507 34.9618C65.0198 33.712 65.0425 31.5527 67.5079 30.2595C69.4971 29.2166 71.6791 28.8556 73.8772 28.6642C77.5049 28.3516 81.0818 28.6076 84.498 30.0116C85.0835 30.2553 85.6309 30.583 86.1231 30.9844C87.3815 32.0111 87.4297 33.3692 86.0696 34.2396C84.87 35.0194 83.5512 35.5957 82.1661 35.9454C77.4136 37.0982 72.0187 37.1729 67.5507 34.9618ZM78.94 33.2938C79.7432 32.9812 79.7431 32.2806 78.956 31.9222C77.2672 31.1272 75.248 31.1333 73.5639 31.9383C72.7822 32.3021 72.817 32.9839 73.6389 33.3099C75.4845 34.0421 77.0933 34.015 78.94 33.2938Z" fill="#F1F1F1"/><path d="M46.9061 36.6326C44.4376 36.6083 41.5515 36.3227 38.8742 35.0454C37.8033 34.5387 36.6574 33.9459 36.6841 32.5635C36.7109 31.1811 37.8756 30.5963 38.9465 30.1382C42.427 28.6076 46.1216 28.2843 49.8404 28.7073C51.8492 28.9839 53.8282 29.4476 55.7519 30.0924C56.9245 30.4562 58.1614 31.1703 58.1802 32.6066C58.1936 33.9971 56.9754 34.6115 55.8697 35.1154C53.1683 36.3334 50.2929 36.6352 46.9061 36.6326ZM50.3985 33.0673C50.7628 32.6608 50.5339 32.1361 50.0894 31.9141C48.411 31.1575 46.432 31.1575 44.7535 31.9141C44.3332 32.1543 44.0918 32.6524 44.4251 33.05C45.572 34.4179 49.2293 34.3721 50.3985 33.0673Z" fill="#F1F1F1"/></svg>
