<svg width="36" height="36" viewBox="0 0 36 36" fill="none" xmlns="http://www.w3.org/2000/svg"><path d="M27.2967 20.5348C26.8479 20.0863 26.2395 19.8344 25.6052 19.8344C24.9708 19.8344 24.3624 20.0863 23.9137 20.5348L22.8475 21.6013C22.7072 21.7418 22.4757 21.7732 22.303 21.6752C21.3188 21.1091 19.745 20.0344 17.8506 18.1418C15.9561 16.2492 14.8834 14.6732 14.3175 13.6871C14.2197 13.5146 14.2511 13.2833 14.3913 13.1432L15.4575 12.0767C15.9059 11.6278 16.1577 11.0192 16.1577 10.3847C16.1577 9.75009 15.9059 9.14149 15.4575 8.69261L9.45425 2.6874C8.54347 1.77537 6.99021 1.76638 6.07045 2.6874C4.28905 4.46939 2.44399 6.11256 2.07121 8.75912C1.85181 10.3167 2.14254 11.9034 2.89989 13.2818C4.8493 16.7996 8.74485 21.2551 11.7415 24.2528C14.7382 27.2505 19.1923 31.144 22.7081 33.0974C24.0857 33.8562 25.672 34.1481 27.2294 33.9292C29.8756 33.5573 31.5187 31.7109 33.3007 29.9291C33.7485 29.4797 34 28.8711 34 28.2366C34 27.6021 33.7485 26.9935 33.3007 26.5442L27.2967 20.5348ZM31.8417 28.4655C30.4066 29.9017 29.0807 31.5833 26.9439 31.8849C25.8301 32.0421 24.6954 31.8343 23.7095 31.2925C21.5263 30.0825 17.6201 27.2136 13.2005 22.7934C8.78094 18.3731 5.91463 14.4648 4.70414 12.2818C4.16267 11.2955 3.95505 10.1603 4.11235 9.04616C4.4139 6.91026 6.09435 5.58237 7.5278 4.14604C7.64978 4.02301 7.87164 4.02301 7.99363 4.14604L13.9977 10.1513C14.1207 10.2733 14.1207 10.4952 13.9977 10.6172L12.9315 11.6837C12.1394 12.478 11.9714 13.7394 12.528 14.7134C13.1554 15.8078 14.3323 17.5437 16.3908 19.5996C18.4493 21.6555 20.1813 22.836 21.2754 23.4636C22.2494 24.0203 23.5105 23.8522 24.3049 23.06L25.371 21.9935C25.493 21.8705 25.7149 21.8705 25.8369 21.9935L31.8401 27.9987C31.964 28.1203 31.9648 28.343 31.8417 28.4655Z" fill="#F1F1F1"/></svg>
