<svg width="36" height="36" viewBox="0 0 36 36" fill="none" xmlns="http://www.w3.org/2000/svg"><path d="M27.038 20.6793C26.1259 19.7679 24.6017 19.7679 23.6896 20.6793L22.6344 21.7345C22.4955 21.8735 22.2663 21.9046 22.0954 21.8076C21.1213 21.2475 19.5636 20.1841 17.6885 18.3115C15.8134 16.4388 14.7517 14.8795 14.1916 13.9038C14.0947 13.7331 14.1258 13.5043 14.2646 13.3656L15.3199 12.3103C16.2313 11.3982 16.2313 9.87407 15.3199 8.96196L9.37803 3.0201C8.47657 2.11769 6.93919 2.10879 6.02884 3.0201L4.0953 4.95364C2.998 6.05732 2.28763 7.48666 2.07048 9.02777C1.85333 10.5689 2.14108 12.1389 2.89069 13.5028C4.82017 16.9835 8.67589 21.392 11.6419 24.358C14.608 27.3241 19.0165 31.1766 22.4964 33.1093C23.8599 33.8602 25.43 34.1489 26.9714 33.9323C28.5128 33.7158 29.9426 33.0055 31.0463 31.9079L32.9807 29.9744C33.8908 29.0615 33.8908 27.5381 32.9807 26.6252L27.038 20.6793ZM31.5366 28.5263L29.6031 30.4606C28.8137 31.2457 27.7913 31.7541 26.6889 31.9096C25.5864 32.0652 24.4633 31.8595 23.4875 31.3235C21.3267 30.1262 17.4604 27.2876 13.086 22.914C8.71161 18.5404 5.87461 14.6733 4.67649 12.5133C4.14056 11.5374 3.93506 10.4142 4.09075 9.31178C4.24644 8.20936 4.75495 7.187 5.54017 6.39771L7.47128 4.46335C7.59202 4.34162 7.81161 4.34162 7.93235 4.46335L13.875 10.4052C13.9967 10.526 13.9967 10.7455 13.875 10.8663L12.8198 11.9215C12.0357 12.7074 11.8695 13.9555 12.4204 14.9192C13.0414 16.0021 14.2062 17.7197 16.2436 19.7539C18.2811 21.7881 19.9955 22.9562 21.0783 23.5772C22.0424 24.1279 23.2905 23.9617 24.0768 23.1778L25.1321 22.1225C25.2528 22.0008 25.4724 22.0008 25.5931 22.1225L31.535 28.0644C31.6576 28.1848 31.6584 28.405 31.5366 28.5263Z" fill="#F1F1F1"/><path d="M33.9954 14.4314C33.6951 11.2373 32.2895 8.24808 30.021 5.97946C27.7526 3.71085 24.7635 2.30507 21.5694 2.0046C20.2677 1.88268 19.9899 3.98977 21.3713 4.11916C24.0728 4.37366 26.6007 5.56275 28.5194 7.4814C30.438 9.40005 31.6271 11.928 31.8816 14.6294C32.0121 16.011 34.117 15.7325 33.9954 14.4314Z" fill="#F1F1F1"/><path d="M20.459 13.8323C21.3521 13.9194 22.0791 14.6484 22.1636 15.5418C22.1882 15.8048 22.31 16.0492 22.5051 16.2272C23.205 16.8657 24.3622 16.2542 24.2765 15.3446C24.1892 14.4126 23.7793 13.5404 23.1174 12.8785C22.4555 12.2167 21.5833 11.8067 20.6513 11.7194C19.7384 11.5923 19.0762 12.7426 19.7037 13.4656C19.8917 13.6821 20.1677 13.8161 20.4541 13.8299L20.459 13.8323Z" fill="#F1F1F1"/><path d="M20.9151 8.97657C22.4854 9.12408 23.9549 9.81499 25.0701 10.9301C26.1854 12.0452 26.8765 13.5146 27.0242 15.0848C27.144 16.3839 29.266 16.2703 29.138 14.8884C28.9437 12.8254 28.0357 10.8948 26.5705 9.42952C25.1052 7.96428 23.1746 7.05625 21.1116 6.86202C19.8384 6.74325 19.5472 8.84897 20.9151 8.97657Z" fill="#F1F1F1"/></svg>
