<svg width="100" height="130" viewBox="0 0 100 130" fill="none" xmlns="http://www.w3.org/2000/svg"><path d="M77.6289 48.8901H71.1195C68.6562 48.8901 67.6101 51.1035 67.6101 53.2314H57.6038L50.3082 37.6728L48.7296 38.4657L46.5409 33.793L51.717 20.4571L43.0629 2L18.7296 14.1791L27.3837 32.6426L40.7233 36.7045L42.9119 41.3773L41.3333 42.1701L46.5157 53.2184H37.2579C37.2579 53.2184 37.5346 61.4786 35.7862 62.9668C34.0377 64.4551 29.8176 63.8182 29.8176 63.8182V73.9761H18.3396V78.4344H12V80.4296L24.3962 84.1275L19.2453 121.627C18.8728 124.355 21.1989 125.656 23.522 125.656C23.3315 130.115 30.1716 130.114 29.9811 125.656C32.0256 125.656 33.9613 124.86 34.2579 122.601L37.4717 98.5032H44.4528V96.6185L33.3836 92.2317L35.3333 80.6765H47.1321V71.253H52.4717C54.3585 78.6878 59.4654 101.402 59.4654 101.402L63.6541 102.052L61.7233 98.2887L60.1069 71.24H67.6226C67.6226 73.3864 68.6102 75.677 71.1321 75.6723H77.6289C78.5597 75.6723 79.4523 75.2902 80.1105 74.6102C80.7686 73.9301 81.1384 73.0077 81.1384 72.0459V52.5165C81.1384 50.5896 79.5874 48.8901 77.6289 48.8901ZM34.1384 13.8866C30.4774 15.696 26.3401 16.2033 22.3711 15.3294L42.4528 5.20399C42.4528 5.20399 40.6164 10.4877 34.1384 13.8866ZM30.5535 118.416H24.2642C23.117 118.416 23.0521 116.505 24.2642 116.505H30.5535C31.7006 116.505 31.7655 118.416 30.5535 118.416ZM31.2516 112.976H24.9623C23.8151 112.976 23.7502 111.066 24.9623 111.066H31.2516C32.3988 111.066 32.4636 112.976 31.2516 112.976ZM31.956 107.537H25.6667C24.6006 107.446 24.5463 105.715 25.6667 105.62H31.956C33.0763 105.715 33.0221 107.446 31.956 107.537ZM32.6541 102.091H26.3648C25.2176 102.091 25.1528 100.18 26.3648 100.18H32.6541C33.8012 100.18 33.8666 102.099 32.6541 102.091ZM42.688 66.3794C41.1067 65.2904 40.3332 63.2938 40.6929 61.4166C41.2382 58.5716 44.3237 56.7128 47.0722 57.8881C50.151 59.2046 50.8764 63.411 48.594 65.7727C47.045 67.3754 44.5221 67.6426 42.688 66.3794Z" fill="#F1F1F1"/><path d="M83.5535 68.5429L88 65.5014V59.2169L83.5535 56.1754V68.5429Z" fill="#F1F1F1"/></svg>
