<svg width="36" height="36" viewBox="0 0 36 36" fill="none" xmlns="http://www.w3.org/2000/svg">
<path d="M18 2C14.8355 2 11.7421 2.93838 9.11088 4.69649C6.4797 6.45459 4.42894 8.95345 3.21793 11.8771C2.00693 14.8007 1.69008 18.0177 2.30744 21.1214C2.92481 24.2251 4.44866 27.0761 6.6863 29.3137C8.92394 31.5513 11.7749 33.0752 14.8786 33.6926C17.9823 34.3099 21.1993 33.9931 24.1229 32.7821C27.0466 31.5711 29.5454 29.5203 31.3035 26.8891C33.0616 24.2579 34 21.1645 34 18C34 13.7565 32.3143 9.68687 29.3137 6.68629C26.3131 3.68571 22.2435 2 18 2ZM19.2086 31.5457V30.4714C19.2086 28.9819 16.7914 28.8923 16.7914 30.4714V31.5457C13.6124 31.2572 10.6358 29.8608 8.38182 27.6005C6.12781 25.3402 4.73969 22.3598 4.46001 19.18H5.50286C7.08195 19.18 6.99086 16.7629 5.50286 16.7629H4.47429C4.77204 13.5984 6.16733 10.6379 8.41844 8.39407C10.6696 6.15027 13.6346 4.7646 16.8 4.47714V5.48286C16.8 7.06194 19.2171 6.97085 19.2171 5.48286V4.47143C22.3825 4.75888 25.3476 6.14455 27.5987 8.38835C29.8498 10.6322 31.2451 13.5927 31.5429 16.7571H30.5086C28.9294 16.7571 29.0191 19.1743 30.5086 19.1743H31.5486C31.2713 22.3555 29.884 25.3379 27.6297 27.5996C25.3754 29.8612 22.3975 31.2581 19.2171 31.5457H19.2086Z" fill="#F1F1F1"/>
<path d="M25.2086 10.2086L18.0486 17.7086C17.9448 17.7086 17.8421 17.7136 17.74 17.7343L11.74 13.2057C10.803 12.5818 9.83876 13.9732 10.6514 14.6571L16.6372 19.18C16.669 19.5276 16.8333 19.8497 17.0961 20.0795C17.6345 20.5505 18.4728 20.5152 18.9697 20.0006C19.2464 19.7142 19.3514 19.3487 19.3514 18.96L26.4943 11.46C27.2647 10.6527 26.0004 9.35183 25.1829 10.2086H25.2086Z" fill="#F1F1F1"/>
</svg>
