<svg width="100" height="130" viewBox="0 0 100 130" fill="none" xmlns="http://www.w3.org/2000/svg"><path d="M97.0001 91.4376C96.352 91.9377 95.7362 92.8251 95.0719 92.8574C90.616 93.1478 79.0307 93.293 74.5748 93.4059C73.9636 93.3571 73.3895 93.0942 72.9545 92.6638C64.5774 84.145 31.8631 51.2638 30.1942 49.6342L20.926 58.6371C19.3056 60.2505 17.6853 61.8639 16.065 63.3805C12.8243 66.4943 8.78971 66.2846 5.40323 62.961C2.38622 60.1616 2.25816 55.2516 5.06298 52.2963C16.5835 41.3252 27.8933 30.1443 39.268 19.0441C39.7595 18.5186 40.3023 18.0429 40.8883 17.6243C43.3794 15.5932 47.3236 19.4608 44.534 21.6094C42.3304 23.8843 40.0458 26.0785 37.7773 28.2889C28.3794 37.4369 18.9978 46.6172 9.53509 55.7168C8.27123 56.9269 8.174 57.8303 9.37304 59.0727C10.5721 60.315 11.5767 60.1859 12.7919 58.9759C17.1344 54.6519 21.5579 50.3764 25.9651 46.0686C28.0817 43.6832 31.9357 43.6104 34.1478 45.8589C36.8537 48.2467 70.9129 84.8872 74.8665 88.7755C75.4644 89.3185 76.2301 89.6429 77.0378 89.6951C80.7159 89.8564 91.5396 89.808 95.2177 90.0017C95.7686 90.1791 96.3682 90.9535 97.0001 91.4376Z" fill="#F1F1F1"/><path d="M57.9182 45.9695C56.2716 45.0983 54.6419 44.3238 53.1375 43.368C52.7264 42.9362 52.5669 42.292 52.7286 41.7164C54.7147 37.5913 56.7008 33.4662 58.6869 29.3411C59.169 28.3663 59.6877 28.1312 60.6581 28.6431C62.1655 29.4608 63.7333 30.2059 65.2194 30.9629C64.0203 35.3226 64.3726 36.2757 68.2669 38.1645C74.9462 41.3767 81.6653 44.5065 88.369 47.6417C91.4993 49.1166 93.2156 51.8965 95.514 54.915C91.9032 54.8591 88.7815 55.3144 85.7948 53.857C78.9902 50.4838 72.2253 47.0281 65.4153 43.6397C61.88 41.7949 60.5293 42.2048 57.9182 45.9695ZM63.6402 30.8207L63.327 31.1026C63.3395 31.7889 63.3054 32.4756 63.2247 33.1577C62.9708 34.2043 63.0879 35.3045 63.5562 36.2711C64.0244 37.2376 64.8149 38.0107 65.793 38.4588C73.1012 41.9445 80.4444 45.3836 87.7724 48.8281C87.964 48.8817 88.1632 48.9036 88.3622 48.893C86.1309 47.6073 83.8185 46.4661 81.4392 45.4762C76.6586 43.217 71.9329 40.8698 67.1668 38.5541C65.9292 38.1375 64.9051 37.256 64.3113 36.0963C63.7176 34.9366 63.6008 33.5897 63.9857 32.3408C64.035 32.0768 64.0298 31.8057 63.9704 31.5444C63.911 31.283 63.7986 31.0367 63.6402 30.8207Z" fill="#F1F1F1"/><path d="M67.6403 46.2049C66.153 49.1097 42.5807 95.1995 36.6231 106.599C35.7581 107.957 35.9362 109.804 37.0707 110.963C37.4398 111.34 37.8893 111.629 38.3861 111.809C39.5215 112.399 40.7073 112.938 41.8778 113.481C42.3236 113.755 42.8259 113.926 43.3476 113.981C44.9391 114.148 46.5036 113.168 47.0424 111.652C52.3171 100.802 73.7103 54.1839 75.5764 49.9131L67.6403 46.2049ZM44.3394 112.712L42.7731 112.069C43.4438 111.045 72.2789 49.9174 72.2789 49.9174L73.9025 50.6256L44.3394 112.712Z" fill="#F1F1F1"/><path d="M79.87 42.576L71.6718 38.8066C72.3661 36.9696 73.1536 34.8601 75.2066 35.1767C77.2727 35.4347 79.2034 36.3301 80.7291 37.7379C82.0349 39.1062 80.6408 41.3963 79.87 42.576Z" fill="#F1F1F1"/></svg>
