<svg width="100" height="130" viewBox="0 0 100 130" fill="none" xmlns="http://www.w3.org/2000/svg"><path d="M75.9875 125.658C74.8883 125.211 73.7078 123.829 72.3236 121.513L71.2245 119.563H77.2902L78.3893 122.123C78.9593 123.504 79.4478 124.845 79.4478 125.089C79.4478 125.983 77.5345 126.308 75.9875 125.658Z" fill="#F1F1F1"/><path d="M79.6106 122.692C78.5929 119.278 78.6336 119.116 80.262 118.587C81.3204 118.262 81.8904 117.693 82.4603 116.515L83.2745 114.889L83.6409 116.271C83.8037 117.002 84.2515 118.059 84.6179 118.587C85.025 119.237 85.1471 120.01 84.9843 120.985C84.74 122.285 83.6002 123.382 80.8319 124.967C80.547 125.13 80.0991 124.276 79.6106 122.692Z" fill="#F1F1F1"/><path d="M70.1253 118.628C68.4969 117.856 59.5408 103.877 54.33 93.9614C52.9459 91.4013 50.3405 86.0372 48.5086 82.0955C45.2111 75.0247 45.1297 74.8621 43.3385 74.0088C41.3437 73.0335 40.326 71.6925 39.2268 68.6041C38.8197 67.4663 38.2091 66.491 37.7205 66.3284C37.2727 66.1253 36.0107 65.6783 34.9116 65.2719C32.5911 64.4592 29.7415 62.0616 28.5202 59.8266L27.6653 58.2824L6.78131 58.2011L5.84499 57.1445C4.70512 55.8442 4.70512 54.8689 5.9264 53.4466L6.90343 52.3088L26.1183 52.065L26.159 52.9996C26.159 53.5279 26.4847 52.8371 26.8918 51.496C27.9095 47.92 29.0901 45.9288 31.207 44.0595L33.0797 42.3934L32.3876 38.2485C31.0849 30.4869 32.2655 24.3507 35.5222 21.9532C37.8834 20.2058 39.7153 19.8401 46.066 19.7994C52.8645 19.7994 55.5106 20.409 58.3603 22.5627C60.6807 24.3507 61.8613 26.5451 62.3498 30.2024C64.4667 46.0101 65.3216 49.1391 68.6191 53.6904C70.7767 56.6163 71.1024 58.2417 70.5324 63.24C70.0846 67.3037 70.0846 67.6695 71.1023 71.6925C72.1608 75.7562 76.5981 92.0515 80.7098 106.64C82.9081 114.564 82.9488 115.702 81.0355 117.287C79.0814 118.953 72.4865 119.766 70.1253 118.628ZM76.5574 116.271C77.6566 116.027 78.7965 115.58 79.0814 115.255C79.4478 114.808 78.8372 112.37 76.0689 103.43C74.1556 97.2123 71.1024 86.85 69.3111 80.3481L66.0137 68.5635L66.1358 63.6871C66.2172 58.8107 66.2172 58.8106 64.711 55.5191C62.8383 51.5367 60.5586 42.109 59.2559 33.2502C59.0523 31.706 58.9709 31.7872 57.5461 36.0541C56.1212 40.3616 56.1212 40.4835 56.5691 43.3281C56.854 44.9129 57.9125 48.6108 58.9302 51.496C63.3268 63.9715 63.449 66.8974 59.7037 72.0582L58.2788 74.0494L62.1463 74.1307L60.7214 74.7402C58.6452 75.6342 55.1442 75.8781 52.9866 75.2279L51.1547 74.659L52.8645 74.5371C55.1849 74.3745 55.592 73.5618 55.3478 69.5794C55.0221 64.0934 53.8822 63.0775 47.0023 62.1835C44.3562 61.8584 39.9596 61.9803 39.9596 62.3867C39.9596 62.4273 40.326 63.8496 40.8145 65.5157C41.8729 69.3762 43.0535 71.4487 44.519 72.0582C46.4731 72.871 47.8165 74.8621 50.7069 81.364C52.2538 84.8181 54.9 90.426 56.6098 93.7582C60.2329 100.91 69.5961 115.214 71.2245 116.108C72.5679 116.799 73.8706 116.84 76.5574 116.271ZM37.1099 60.8831C37.1099 59.1764 37.3949 57.6322 37.9241 56.3724C39.064 53.7311 38.9825 52.6745 37.6391 52.0243C36.255 51.3741 34.7487 49.1798 34.1381 46.9447L33.6903 45.1974L32.3062 46.5384C30.3114 48.4077 29.3751 50.6427 29.3751 53.5279C29.3751 56.4131 30.3114 58.6481 32.2248 60.558C33.4053 61.7771 36.0515 63.4026 36.8249 63.4839C36.9878 63.4839 37.1099 62.3054 37.1099 60.8831ZM54.9814 59.8672C55.4292 59.4202 55.9991 58.2824 56.2841 57.3071C57.2611 53.8123 55.3071 43.0842 53.4344 41.3775C50.7069 38.8987 42.9314 38.8987 41.303 41.3775C40.733 42.2715 40.6923 43.2468 40.9366 49.1798C41.1809 54.9095 41.1401 56.088 40.6109 56.7788C39.8374 57.7947 39.7967 59.1764 40.4888 59.7453C41.0994 60.2736 43.257 60.4768 49.4449 60.558C53.6787 60.6393 54.2893 60.558 54.9814 59.8672ZM26.9732 56.1693C26.7697 55.1127 26.6068 54.9095 26.4033 55.4784C26.159 56.088 25.3041 56.1693 16.3073 56.1693C7.67691 56.1693 6.53705 56.2505 6.98485 56.7788C7.39195 57.2665 9.22388 57.3884 17.3251 57.4696C22.6987 57.5509 27.1768 57.5916 27.2175 57.5916C27.2582 57.5916 27.1361 56.9414 26.9732 56.1693ZM38.7383 39.7114C40.0817 38.0859 42.7278 37.3545 48.0608 37.1919C54.9 36.9887 54.8593 36.9887 56.162 31.0964C56.5283 29.4303 56.5283 29.3897 55.2256 28.7801C52.2946 27.3985 49.2006 26.9108 43.0128 26.9108C36.3771 26.9108 35.3187 27.1953 34.3009 29.0239C33.4868 30.4462 33.8124 30.7307 35.4815 29.918C36.5807 29.349 37.6391 29.2678 41.5472 29.471C46.351 29.7148 54.5743 30.812 55.1035 31.2996C55.2663 31.4622 51.1547 31.5841 46.0253 31.5841H36.6214L35.4408 32.9251C34.5859 33.8597 34.2602 34.6318 34.2602 35.7696C34.2602 37.8015 35.2373 41.9058 36.6214 45.6037L37.7205 48.6515L37.9241 44.5472C38.0462 41.7432 38.3312 40.199 38.7383 39.7114Z" fill="#F1F1F1"/><path d="M70.3289 112.939C68.9448 111.557 61.5763 99.0004 58.2789 92.4172C55.2256 86.3623 51.3582 77.5035 51.3582 76.7721C51.3989 76.2844 52.9866 77.9505 55.7956 81.4047C56.6912 82.5019 58.2789 85.5902 59.7037 88.9225C61.0064 92.0515 62.7976 96.0339 63.6525 97.7812C65.3623 101.154 69.474 108.022 70.0439 108.347C70.2067 108.469 69.189 106.234 67.8049 103.389C64.1817 96.1152 58.5231 81.9329 58.5231 80.0636C58.4824 78.8039 58.8081 78.235 60.3143 76.6908C61.2914 75.6749 62.2277 74.8621 62.3905 74.8621C62.6755 74.8621 64.0596 78.6414 69.0669 93.555C70.9802 99.2442 73.2192 105.38 74.0334 107.168C74.8883 109.038 75.5397 111.11 75.5397 112.045L75.5804 113.67L73.4635 113.792C71.6316 113.914 71.1431 113.751 70.3289 112.939Z" fill="#F1F1F1"/><path d="M53.0273 72.3833C52.8645 68.2384 50.3812 65.8814 44.3562 64.1341L40.9773 63.1181H43.9084C48.3457 63.0775 50.7069 63.6871 52.1317 65.3125C53.5565 66.938 54.0858 69.62 53.4751 71.8957C53.1495 73.1554 53.068 73.2367 53.0273 72.3833Z" fill="#F1F1F1"/><path d="M49.1192 71.2048C48.8342 70.7172 49.2006 69.9857 49.7706 69.9857C50.2591 69.9857 50.2591 71.0829 49.7706 71.408C49.567 71.5299 49.282 71.4487 49.1192 71.2048Z" fill="#F1F1F1"/><path d="M46.7581 70.5547C46.3917 70.1483 46.8395 69.5794 47.5315 69.5794C47.8572 69.5794 48.1015 69.8638 48.1015 70.1889C48.1015 70.7985 47.2466 71.0423 46.7581 70.5547Z" fill="#F1F1F1"/><path d="M44.6412 69.9451C44.2341 69.3356 44.6819 69.0105 45.4554 69.3356C45.8217 69.4575 45.9846 69.7419 45.8624 69.9857C45.5368 70.514 44.9668 70.514 44.6412 69.9451Z" fill="#F1F1F1"/><path d="M48.6714 68.6041C48.3457 67.7101 48.7935 67.2631 49.4042 67.8726C49.7706 68.2384 49.7706 68.4822 49.4042 68.8479C49.0378 69.2136 48.875 69.1324 48.6714 68.6041Z" fill="#F1F1F1"/><path d="M46.2695 67.9945C46.1474 67.7914 46.2288 67.5069 46.4731 67.3444C46.9616 67.0599 47.6944 67.4256 47.6944 67.9945C47.6944 68.4822 46.5952 68.4822 46.2695 67.9945Z" fill="#F1F1F1"/><path d="M64.4667 64.1341C64.1003 61.0457 63.449 58.4043 62.3091 55.194C60.4365 49.9925 57.9532 38.6548 58.8895 39.5489C58.9709 39.6708 59.7851 42.556 60.6807 46.0101C61.5763 49.4236 62.9604 53.8123 63.7339 55.7223C65.2809 59.5827 65.7694 62.915 65.2809 66.3284L64.9959 68.5635L64.4667 64.1341Z" fill="#F1F1F1"/><path d="M44.0305 67.3444C44.0305 67.0193 44.3155 66.7348 44.6412 66.7348C44.9668 66.7348 45.2518 67.0193 45.2518 67.3444C45.2518 67.6695 44.9668 67.9539 44.6412 67.9539C44.3155 67.9539 44.0305 67.6695 44.0305 67.3444Z" fill="#F1F1F1"/><path d="M43.542 59.5421C42.4428 59.4608 41.5879 59.217 41.5879 58.9732C41.5879 58.3636 51.4397 58.6887 51.6839 59.3389C51.8467 59.8266 48.4271 59.9078 43.542 59.5421Z" fill="#F1F1F1"/><path d="M44.519 57.9166C42.7278 57.7947 41.995 57.5915 42.1172 57.2665C42.2393 56.9007 43.542 56.8195 46.9209 56.9414C51.7246 57.0633 52.3353 57.1852 51.9689 57.8354C51.7246 58.2011 49.9334 58.2011 44.519 57.9166Z" fill="#F1F1F1"/><path d="M45.4961 51.5773C44.6412 50.9271 44.519 49.1391 45.2518 48.2451C46.0253 47.3105 47.9386 47.473 48.6714 48.5296C49.5263 49.7487 49.4856 50.3176 48.5086 51.2929C47.5722 52.2275 46.5138 52.3494 45.4961 51.5773Z" fill="#F1F1F1"/><path d="M71.9573 57.5509C70.6546 56.2912 71.1431 55.8442 73.952 55.8035C80.5063 55.7629 85.31 52.9183 87.9561 47.5543C91.2129 40.9305 91.0093 33.6972 87.3455 25.773C83.763 17.9301 77.6566 12.2004 69.9218 9.31515C65.3623 7.64904 59.2559 7.32395 55.1442 8.54305C49.9741 10.1279 47.0023 12.7693 45.4146 17.158C44.804 18.8241 44.519 19.1899 43.7048 19.1899C42.8092 19.1899 42.7278 19.068 42.9721 17.8895C43.5013 15.0856 45.781 11.2657 48.5493 8.50241C53.7601 3.30091 58.7674 2.00054 66.9907 3.70728C82.786 6.95822 94.9174 21.4655 94.9988 37.2732C95.0803 45.685 90.8465 52.7964 83.8037 56.1286C79.6514 58.0792 73.26 58.8919 71.9573 57.5509Z" fill="#F1F1F1"/><path d="M69.5554 53.0402C69.3926 52.7964 69.8404 52.1056 70.5324 51.4554C73.4228 48.7327 74.8883 43.45 74.1556 38.411C73.1378 31.2183 70.1253 27.3578 63.8968 25.2447C62.7976 24.879 61.3321 23.9444 60.5586 23.1723C58.1974 20.7341 54.615 19.5556 48.4271 19.1086L46.9209 18.9867L47.613 17.5644C48.59 15.5326 51.6432 12.6067 54.0044 11.4689C55.7549 10.6155 56.6098 10.4936 60.3143 10.4936C63.8968 10.4936 65.0773 10.6562 67.5606 11.5502C75.3361 14.3541 82.8674 21.3842 85.7985 28.5769C89.6659 38.1266 86.4906 48.7328 78.715 52.2275C76.6388 53.1622 69.9625 53.7311 69.5554 53.0402ZM82.5417 37.1919C82.0939 31.6653 79.4478 26.4638 74.8069 22.1157C69.7589 17.4425 64.3446 15.2887 58.3196 15.6138C56.162 15.7357 54.1265 16.1421 53.068 16.5891L51.2768 17.3612L56.5283 17.4018C61.0064 17.4425 62.187 17.605 65.0366 18.499C74.7662 21.7093 80.8726 29.5522 81.7682 40.0771C82.0125 43.2062 82.0532 43.2874 82.4196 41.7432C82.6232 40.8492 82.6639 38.8174 82.5417 37.1919Z" fill="#F1F1F1"/><path d="M67.0314 48.7734C65.9729 46.4977 64.141 39.2238 64.5074 38.858C65.1588 38.1672 68.6191 41.0524 69.8811 43.3687C70.5731 44.5878 70.5731 44.5472 70.3289 41.8245C70.2067 40.3209 69.7589 38.2891 69.3518 37.3545C68.4969 35.4852 66.1358 33.1689 64.6295 32.7625C63.8153 32.5593 63.6118 32.1936 63.3675 30.2837C63.2047 29.0239 63.0012 27.7236 62.879 27.3985C62.5941 26.7077 63.6932 26.9515 66.38 28.2925C71.1431 30.6088 74.0334 38.9799 72.2015 45.1974C71.6316 47.1479 69.1483 50.8865 68.4155 50.8865C68.212 50.8865 67.5606 49.9112 67.0314 48.7734Z" fill="#F1F1F1"/></svg>
