<svg width="36" height="36" viewBox="0 0 36 36" fill="none" xmlns="http://www.w3.org/2000/svg"><path fill-rule="evenodd" clip-rule="evenodd" d="M25.6547 21.1341C25.2622 20.9201 23.3274 19.8882 22.9625 19.74C22.5977 19.5918 22.3378 19.5149 22.0559 19.9046C21.774 20.2943 20.9503 21.1616 20.7292 21.4195C20.5081 21.6775 20.2482 21.6995 19.8502 21.4854C17.5794 20.4829 15.7524 18.7301 14.5764 16.5509C14.3553 16.1448 14.5764 15.9362 14.7865 15.7441C15.1896 15.3754 15.6026 14.9193 15.8368 14.4213C15.9549 14.2076 15.9549 13.9378 15.8368 13.7242C15.7428 13.5211 15.0131 11.5286 14.7312 10.7218C14.4493 9.91491 14.0899 10.0302 13.8578 10.0247C13.389 10.0136 12.94 9.88897 12.4877 10.0753C11.1997 10.6061 10.4833 12.4053 10.458 13.6858C10.3806 15.6453 11.746 17.5938 11.9395 17.8628C12.133 18.1317 14.5432 22.3856 18.5732 24.131C22.6032 25.8765 22.6142 25.3441 23.3495 25.3057C24.0847 25.2672 25.7597 24.4274 26.1135 23.5108C26.3959 22.9256 26.5015 22.2717 26.4176 21.6281C26.3236 21.458 26.0583 21.3482 25.6658 21.1341H25.6547ZM11.1048 28.4288L6.07973 30.0261L7.71052 25.2068C4.2091 20.4054 4.48917 13.6499 8.36942 9.15061C10.279 6.93642 12.8836 5.42484 15.7637 4.85932C21.6011 3.71309 27.6711 6.75969 30.1772 12.1681C32.6772 17.5633 31.0683 24.1326 26.3897 27.7915C22.014 31.2136 15.7429 31.4802 11.1048 28.4288ZM10.3748 4.12736C5.54683 6.92566 2.50796 12.2294 2.58588 17.8153C2.6244 20.5773 3.40087 23.2796 4.83591 25.646L2 34L10.6957 31.2556C14.9163 33.5692 20.0843 33.8181 24.5088 31.9242C28.9185 30.0367 32.2962 26.1399 33.5026 21.4933C34.7064 16.8569 33.6543 11.8202 30.7085 8.04516C25.961 1.96135 17.0872 0.23682 10.3748 4.12736Z" fill="#EFEFEF"/></svg>