<svg width="150" height="130" viewBox="0 0 150 130" fill="none" xmlns="http://www.w3.org/2000/svg"><path d="M124.58 61.6051C124.58 58.3009 129.758 55.1428 134.146 53.827C133.15 48.2431 131.367 42.8284 128.851 37.7443C124.551 39.2649 118.202 39.9667 116.447 36.9256C114.692 33.8845 117.705 28.738 120.835 25.4338C117.171 21.102 112.928 17.2943 108.226 14.1175C105.301 17.5972 100.093 21.3985 97.08 19.644C94.0667 17.8896 94.1545 11.8951 95.1199 7.47971C89.7831 5.54154 84.1982 4.36996 78.5321 4C77.6837 8.50314 75.1385 14.3514 71.6279 14.3514C68.1173 14.3514 65.1625 9.17569 63.846 4.78951C58.2641 5.78897 52.8486 7.56045 47.7555 10.0529C49.2768 14.3806 49.9789 20.726 46.9656 22.4804C43.9523 24.2349 38.7742 21.2231 35.4683 18.0942C31.1269 21.7491 27.3163 25.9909 24.1465 30.6972C27.6279 33.6213 31.4018 38.797 29.6465 41.8381C27.8912 44.8792 21.9231 44.7622 17.4763 43.7972C15.5606 49.1367 14.3987 54.717 14.0242 60.377C18.5002 61.225 24.3513 63.769 24.3513 67.2779C24.3513 70.7869 19.1731 73.7402 14.8141 75.0561C15.7868 80.6421 17.5604 86.0587 20.08 91.1387C24.3806 89.6182 30.7289 88.9164 32.4843 91.9282C34.2396 94.9401 31.2263 100.116 28.1252 103.42C31.7672 107.774 36.0132 111.584 40.7343 114.736C43.6598 111.257 48.838 107.485 51.8513 109.239C54.8646 110.993 54.7768 116.959 53.8407 121.374C59.16 123.362 64.7355 124.583 70.3992 125C71.2476 120.526 73.7928 114.678 77.3034 114.678C80.8141 114.678 83.7688 119.854 85.0853 124.211C90.6706 123.225 96.088 121.452 101.176 118.947C99.6545 114.649 98.9523 108.303 101.966 106.549C104.979 104.794 110.157 107.806 113.492 110.906C117.838 107.264 121.641 103.02 124.785 98.3028C121.333 95.3787 117.529 90.203 119.285 87.1619C121.04 84.1208 127.008 84.2378 131.455 85.2028C133.441 79.8273 134.643 74.1943 135.024 68.4768C130.431 67.658 124.58 65.1141 124.58 61.6051ZM74.4657 104.765C69.1667 104.769 63.9189 103.729 59.0225 101.703C54.1261 99.6784 49.6772 96.7083 45.9302 92.9632C42.1832 89.218 39.2117 84.7712 37.1857 79.8772C35.1596 74.9832 34.1187 69.738 34.1226 64.4415C34.1187 59.1437 35.1594 53.897 37.1851 49.0014C39.2108 44.1057 42.1818 39.657 45.9284 35.9095C49.675 32.162 54.1237 29.1892 59.0202 27.1609C63.9168 25.1327 69.1653 24.0887 74.4657 24.0887C85.1731 24.0887 95.4419 28.3401 103.013 35.9078C110.584 43.4754 114.838 53.7393 114.838 64.4415C114.838 69.7394 113.794 74.9853 111.764 79.8795C109.735 84.7736 106.761 89.2202 103.011 92.965C99.2621 96.7097 94.8113 99.6793 89.9133 101.704C85.0152 103.729 79.7661 104.769 74.4657 104.765Z" fill="white"/><path d="M74.0075 32.3151C82.6748 32.3228 90.985 35.7676 97.1137 41.8934C103.242 48.0192 106.689 56.3253 106.697 64.9885C106.7 69.283 105.858 73.5363 104.217 77.5053C102.577 81.4744 100.17 85.0816 97.1342 88.121C94.0988 91.1604 90.4941 93.5724 86.526 95.2194C82.5579 96.8664 78.3041 97.716 74.0075 97.7198C65.3274 97.7275 56.9994 94.2904 50.8535 88.1638C44.7076 82.0372 41.2467 73.7223 41.2313 65.0465C41.2275 60.7446 42.0728 56.4843 43.719 52.5095C45.3651 48.5347 47.7797 44.9236 50.8244 41.8831C53.8691 38.8426 57.4841 36.4324 61.4623 34.7905C65.4404 33.1487 69.7035 32.3075 74.0075 32.3151ZM74.0075 29.7349C64.6531 29.7349 55.6819 33.4491 49.0674 40.0604C42.4528 46.6717 38.7368 55.6386 38.7368 64.9885C38.733 69.6219 39.6423 74.2106 41.4127 78.4927C43.1832 82.7749 45.7801 86.6665 49.0553 89.9455C52.3305 93.2245 56.2198 95.8266 60.5011 97.6033C64.7824 99.3799 69.3719 100.296 74.0075 100.3C83.3618 100.3 92.3331 96.5859 98.9476 89.9745C105.562 83.3632 109.278 74.3963 109.278 65.0465C109.282 60.4158 108.372 55.8299 106.601 51.551C104.83 47.2721 102.232 43.3842 98.9561 40.1099C95.6802 36.8355 91.7904 34.2389 87.5095 32.4686C83.2285 30.6983 78.6404 29.789 74.0075 29.7928V29.7349Z" fill="white"/><path d="M69.928 80.9537C69.6519 80.9525 69.379 80.8949 69.1259 80.7845C68.8729 80.674 68.6452 80.513 68.4569 80.3115L57.1478 69.142C55.8959 67.8359 55.1973 66.0984 55.1973 64.2912C55.1973 62.484 55.8959 60.7464 57.1478 59.4403C58.4785 58.1888 60.2382 57.4918 62.0668 57.4918C63.8955 57.4918 65.6552 58.1888 66.9859 59.4403L69.7671 62.1926L81.0533 51.0231C81.7042 50.3909 82.4737 49.8933 83.3178 49.5587C84.162 49.2242 85.064 49.0593 85.9722 49.0736C86.8804 49.0593 87.7826 49.2242 88.6267 49.5587C89.4709 49.8933 90.2404 50.3909 90.8913 51.0231C92.1273 52.305 92.8178 54.0147 92.8178 55.7936C92.8178 57.5725 92.1273 59.2823 90.8913 60.5642L71.3992 79.9904C71.3048 80.2968 71.1061 80.5607 70.8376 80.7365C70.569 80.9124 70.2473 80.9892 69.928 80.9537ZM62.2278 61.711C61.8615 61.7083 61.4984 61.7778 61.1591 61.9156C60.8199 62.0533 60.5113 62.2566 60.251 62.5137C59.7538 63.044 59.4677 63.7373 59.4464 64.4632C59.4434 64.8218 59.5131 65.1774 59.6514 65.5084C59.7896 65.8395 59.9937 66.1393 60.251 66.3897L70.0889 76.1143L87.9491 58.133C88.2204 57.8879 88.4371 57.5889 88.5855 57.2551C88.7339 56.9213 88.8105 56.5602 88.8105 56.195C88.8105 55.8299 88.7339 55.4687 88.5855 55.1349C88.4371 54.8011 88.2204 54.5021 87.9491 54.257C87.4071 53.7629 86.706 53.4782 85.9722 53.4543C85.6093 53.4508 85.2494 53.5201 84.9138 53.6579C84.5782 53.7958 84.2737 53.9996 84.0185 54.257L71.2382 66.8714C71.0475 67.0684 70.819 67.225 70.5662 67.332C70.3135 67.439 70.0416 67.4941 69.7671 67.4941C69.4926 67.4941 69.2209 67.439 68.9681 67.332C68.7154 67.225 68.4869 67.0684 68.2961 66.8714L64.0206 62.6742C63.816 62.387 63.5478 62.1507 63.2369 61.9837C62.926 61.8166 62.5807 61.7233 62.2278 61.711Z" fill="#AB0003"/></svg>
