<svg width="150" height="130" viewBox="0 0 150 130" fill="none" xmlns="http://www.w3.org/2000/svg"><path d="M75.5971 4C91.4719 9.93449 108.077 14.2313 124.702 17.4266C127.146 71.3462 114.89 109.203 75.5304 125C36.353 109.339 22.837 67.9952 26.6059 17.4266C26.6059 17.4266 53.1126 12.8742 75.5971 4ZM75.5873 10.1455C55.3867 18.1183 31.572 22.2081 31.572 22.2081C28.795 59.4688 36.9322 103.426 75.5274 118.854C110.889 104.662 121.9 70.6506 119.705 22.2081C104.754 19.3345 89.8574 15.4791 75.5873 10.1455Z" fill="#F1F1F1"/><path d="M69.1978 79.3112L58.7069 68.9072C52.9152 62.7947 61.9947 52.9364 68.5062 59.1315L71.2765 61.9048L82.5182 50.65C88.775 44.502 98.3881 53.8952 92.3174 60.2639L73.2162 79.3112C71.7093 80.8174 70.7047 80.8174 69.1978 79.3112ZM61.7979 66.1339L71.5971 75.9328L89.3869 57.8142C92.0728 55.359 87.844 51.4885 85.4717 53.9086L72.7418 66.6193C71.9627 67.4331 70.5992 67.4423 69.8113 66.6193L65.5526 62.3901C63.491 59.4626 59.4324 63.805 61.7979 66.1339Z" fill="#F1F1F1"/><path fill-rule="evenodd" clip-rule="evenodd" d="M117.223 25.0778C94.949 20.9118 75.8362 13.7622 75.8362 13.7622C56.8865 21.2413 34.5472 25.0778 34.5472 25.0778C31.3708 67.6966 42.762 102.541 75.7803 115.74C108.952 102.426 119.282 70.5208 117.223 25.0778ZM73.2162 79.3112L92.3174 60.2639C98.3881 53.8952 88.775 44.502 82.5182 50.65L71.2765 61.9048L68.5062 59.1315C61.9947 52.9364 52.9152 62.7947 58.7069 68.9072L69.1978 79.3112C70.7047 80.8174 71.7093 80.8174 73.2162 79.3112Z" fill="#F1F1F1"/><path fill-rule="evenodd" clip-rule="evenodd" d="M58.7069 68.9072L69.1978 79.3112C70.7047 80.8174 71.7093 80.8174 73.2162 79.3112L92.3174 60.2639C98.3881 53.8952 88.775 44.502 82.5182 50.65L71.2765 61.9048L68.5062 59.1315C61.9947 52.9364 52.9152 62.7947 58.7069 68.9072ZM71.5971 75.9328L61.7979 66.1339C59.4324 63.805 63.491 59.4626 65.5526 62.3901L69.8113 66.6193C70.5992 67.4423 71.9627 67.4331 72.7418 66.6193L85.4717 53.9086C87.844 51.4885 92.0728 55.359 89.3869 57.8142L71.5971 75.9328Z" fill="#AB0003"/><path d="M61.7979 66.1339L71.5971 75.9328L89.3869 57.8142C92.0728 55.359 87.844 51.4885 85.4717 53.9086L72.7418 66.6193C71.9627 67.4331 70.5992 67.4423 69.8113 66.6193L65.5526 62.3901C63.491 59.4626 59.4324 63.805 61.7979 66.1339Z" fill="#F1F1F1"/></svg>
