<svg width="64" height="64" viewBox="0 0 64 64" fill="none" xmlns="http://www.w3.org/2000/svg"><path d="M46.8432 13.9942C45.5259 13.9942 44.3049 14.8085 43.801 16.026C43.0266 17.8975 44.1986 20.1124 46.2072 20.5074C48.193 20.8979 50.1412 19.3204 50.1349 17.2716C50.1349 15.5013 48.6298 13.9887 46.8432 13.9942Z" fill="url(#paint0_linear_2001_138)"/><path d="M32.2234 18.2055C23.6364 18.2055 17.0104 26.3673 18.6726 34.701C19.7537 40.1217 24.1137 44.4665 29.5341 45.5407C32.215 46.0721 34.9935 45.7973 37.5181 44.7513C42.6224 42.6364 46.0446 37.5216 46.0406 31.9949C46.0295 24.4774 39.7357 18.211 32.2234 18.2055ZM32.2234 40.8328C26.7249 40.8328 22.4816 35.6073 23.5444 30.2707C24.2358 26.7995 27.0265 24.0164 30.4971 23.3269C35.8296 22.2676 41.0725 26.4914 41.0725 31.9949C41.0725 36.8133 37.0385 40.8328 32.2234 40.8328Z" fill="url(#paint1_linear_2001_138)"/><path d="M43.1959 60H20.8447C11.6834 59.989 4.01106 52.3444 4 43.1767V20.8538C3.99442 11.6899 11.6466 4.03306 20.8041 4H43.1553C52.3166 4.01102 59.9889 11.6556 60 20.8233V43.1462C60.0056 52.3101 52.3534 59.9669 43.1959 60ZM20.8447 9.26617C14.552 9.26617 9.2784 14.5161 9.27286 20.8132V43.1361C9.25621 49.4349 14.5097 54.7063 20.8041 54.7338H43.1553C49.448 54.7283 54.717 49.4738 54.717 43.1767V20.8538C54.7336 14.5605 49.4848 9.29372 43.1959 9.26617H20.8447Z" fill="url(#paint2_linear_2001_138)"/><defs><linearGradient id="paint0_linear_2001_138" x1="-203.58" y1="-203.58" x2="244.937" y2="244.939" gradientUnits="userSpaceOnUse"><stop stop-color="#FFE185"/><stop offset="0.21" stop-color="#FFBB36"/><stop offset="0.38" stop-color="#FF5176"/><stop offset="0.52" stop-color="#F63395"/><stop offset="0.74" stop-color="#A436D2"/><stop offset="1" stop-color="#5F4EED"/></linearGradient><linearGradient id="paint1_linear_2001_138" x1="-24.247" y1="-24.2676" x2="82.6265" y2="82.6059" gradientUnits="userSpaceOnUse"><stop stop-color="#FFE185"/><stop offset="0.21" stop-color="#FFBB36"/><stop offset="0.38" stop-color="#FF5176"/><stop offset="0.52" stop-color="#F63395"/><stop offset="0.74" stop-color="#A436D2"/><stop offset="1" stop-color="#5F4EED"/></linearGradient><linearGradient id="paint2_linear_2001_138" x1="4.35559" y1="4.39572" x2="57.0173" y2="57.1243" gradientUnits="userSpaceOnUse"><stop stop-color="#FFE185"/><stop offset="0.21" stop-color="#FFBB36"/><stop offset="0.38" stop-color="#FF5176"/><stop offset="0.52" stop-color="#F63395"/><stop offset="0.74" stop-color="#A436D2"/><stop offset="1" stop-color="#5F4EED"/></linearGradient></defs></svg>
